<svg xmlns="http://www.w3.org/2000/svg" width="70" height="108" viewBox="0 0 70 108">
    <g fill="none" fill-rule="evenodd">
        <path fill="#3EC5B4" d="M.716 107.055l41.598-11.929-.06-28.59-2 .005.057 27.08-37.595 10.78V2.743l37.595 10.78-.058 27.013 2 .005.061-28.524L.716.09z"/>
        <path fill="#6E767D" d="M36.321 65.127a2.66 2.66 0 0 1-.999-.197l7.373-7.815a1.001 1.001 0 0 0-1.455-1.373l-7.36 7.802a2.646 2.646 0 0 1-.243-1.1V44.7c0-.174.02-.344.051-.508l12.29 10.424c1.663 1.447 3.354 2.178 4.96 2.178 1.073 0 2.11-.327 3.073-.987 3.46-2.37 6.738-5.233 9.907-8a264.754 264.754 0 0 1 3.798-3.265c.002.054.015.104.015.158v17.744c0 .244-.043.475-.103.7l-7.713-7.494a1 1 0 0 0-1.395 1.434l7.885 7.661a2.655 2.655 0 0 1-1.357.382H36.321zm28.727-23.11c.676 0 1.288.26 1.76.674a253.772 253.772 0 0 0-4.207 3.61c-3.125 2.73-6.356 5.552-9.719 7.855-2.032 1.388-4.162.194-5.59-1.048-.008-.006-.037-.033-12.503-10.605a2.659 2.659 0 0 1 1.532-.486h28.727zm4.683 2.683c0-2.583-2.1-4.683-4.683-4.683H36.321a4.688 4.688 0 0 0-4.684 4.683v17.744a4.66 4.66 0 0 0 1.445 3.37c.006.004.008.012.013.018.013.012.03.016.042.026a4.65 4.65 0 0 0 3.184 1.27h28.727c1.402 0 2.648-.633 3.507-1.613.014-.012.032-.017.045-.03.032-.033.045-.075.071-.11.652-.805 1.06-1.815 1.06-2.93V44.7zM27.973 52.124H7.103a1 1 0 1 1 0-2h20.87a1 1 0 1 1 0 2M27.973 57.293h-16.45a1 1 0 1 1 0-2h16.45a1 1 0 1 1 0 2M27.973 62.463H16.065a1 1 0 1 1 0-2h11.908a1 1 0 1 1 0 2"/>
    </g>
</svg>
