<svg xmlns="http://www.w3.org/2000/svg" width="58" height="111" viewBox="0 0 58 111">
    <g fill="none" fill-rule="evenodd">
        <path fill="#FF8AA3" d="M.387 0L0 110.228l45.146-13.406V72.538h-2.001V95.33L2.01 107.544 2.377 2.58 43.145 13.1v9.438h2.001V11.552z"/>
        <path fill="#6E767D" d="M28.865 40.425h20.82V28.553c0-2.982-2.422-5.406-5.397-5.406H34.171c-2.976 0-5.306 2.375-5.306 5.406v11.872zm-1.01 2h-.01a4.826 4.826 0 0 0-4.818 4.824v19.776c0 2.649 2.161 4.805 4.817 4.805h22.851c2.656 0 4.817-2.156 4.817-4.805V47.249a4.827 4.827 0 0 0-4.472-4.812 1.03 1.03 0 0 1-.74-.012H28.02l-.078-.003c-.029.002-.067 0-.088.003zm22.84 31.405h-22.85c-3.759 0-6.818-3.052-6.818-6.805V47.249a6.833 6.833 0 0 1 5.838-6.754V28.553c0-4.153 3.21-7.406 7.306-7.406h10.117c4.078 0 7.396 3.322 7.396 7.406v11.943a6.833 6.833 0 0 1 5.828 6.753v19.776c0 3.753-3.058 6.805-6.817 6.805z"/>
        <path fill="#6E767D" d="M37.915 63.605h2.71v-8.673c0-.285.122-.556.334-.747.056-.05.105-.1.153-.147.815-.886.838-2.303.047-3.242a1.059 1.059 0 0 1-.067-.068 2.454 2.454 0 0 0-1.72-.806 2.405 2.405 0 0 0-1.762.65 2.463 2.463 0 0 0-.161 3.494l.132.12c.212.19.334.46.334.745v8.674zm3.71 2h-4.71a1 1 0 0 1-1-1V55.35a4.45 4.45 0 0 1-1.11-3.163 4.425 4.425 0 0 1 1.453-3.088c.87-.807 2.01-1.206 3.198-1.176a4.436 4.436 0 0 1 3.034 1.373c.031.028.062.056.09.087 1.52 1.671 1.532 4.271.045 5.962v9.26a1 1 0 0 1-1 1z"/>
    </g>
</svg>
