<?xml version="1.0" encoding="UTF-8"?>
<svg width="40px" height="41px" viewBox="0 0 40 41" version="1.1" xmlns="http://www.w3.org/2000/svg" xmlns:xlink="http://www.w3.org/1999/xlink">
    <!-- Generator: Sketch 57.1 (83088) - https://sketch.com -->
    <title>Group 5</title>
    <desc>Created with Sketch.</desc>
    <g id="Page-1" stroke="none" stroke-width="1" fill="none" fill-rule="evenodd">
        <g id="1.1-Login-Copy-2" transform="translate(-620.000000, -646.000000)" fill="#0077B5" fill-rule="nonzero">
            <g id="Group-7" transform="translate(540.000000, 646.000000)">
                <g id="Group-5" transform="translate(80.000000, 0.000000)">
                    <g id="linkedin-logo" transform="translate(-0.000000, 0.000000)">
                        <path d="M40,24.544625 L40,40.0206567 L31.4267048,40.0206567 L31.4267048,25.5811163 C31.4267048,21.953786 30.1866701,19.4782749 27.0834215,19.4782749 C24.7144847,19.4782749 23.3047287,21.146588 22.6845254,22.7604001 C22.4583544,23.3373316 22.4001376,24.1403447 22.4001376,24.947932 L22.4001376,40.0206567 L13.8239595,40.0206567 C13.8239595,40.0206567 13.939463,15.5648146 13.8239595,13.031007 L22.3993007,13.031007 L22.3993007,16.8566818 C22.38191,16.8852948 22.3593115,16.9161463 22.3429439,16.9438834 L22.3993007,16.9438834 L22.3993007,16.8566818 C23.5386186,15.0202917 25.5733207,12.3969468 30.1276164,12.3969468 C35.7700812,12.3969468 40,16.2544463 40,24.544625 Z M4.85291211,0.0206567049 C1.91901273,0.0206567049 0,2.03456418 0,4.68292112 C0,7.27356545 1.86349296,9.34859185 4.73908262,9.34859185 L4.79636936,9.34859185 C7.78709049,9.34859185 9.64704952,7.27395474 9.64704952,4.68292112 C9.59069276,2.03456418 7.78709049,0.0206567049 4.85291211,0.0206567049 Z M0.509349782,40.0206567 L9.08227296,40.0206567 L9.08227296,13.031007 L0.509349782,13.031007 L0.509349782,40.0206567 Z" id="LinkedIn"></path>
                    </g>
                </g>
            </g>
        </g>
    </g>
</svg>